<?xml version="1.0" encoding="utf-8"?>
<!-- Generator: Adobe Illustrator 22.1.0, SVG Export Plug-In . SVG Version: 6.00 Build 0)  -->
<svg version="1.1" id="Layer_1" xmlns="http://www.w3.org/2000/svg" xmlns:xlink="http://www.w3.org/1999/xlink" x="0px" y="0px"
	 viewBox="0 0 841.9 595.3" style="enable-background:new 0 0 841.9 595.3;" xml:space="preserve">
<style type="text/css">
	.st0{fill:#D7DF23;}
	.st1{fill:#FFFFFF;}
	.st2{fill:#FFF200;}
</style>
<g>
	<path class="st0" d="M350,196.3c6.6,4.4,9.6,13.3,7.2,20.8"/>
	<g>
		<path d="M348.7,198.5c5.7,4.1,8,11.3,6,18c-0.9,3.1,3.9,4.4,4.8,1.3c2.6-9-0.8-18.2-8.3-23.6C348.7,192.3,346.2,196.6,348.7,198.5
			L348.7,198.5z"/>
	</g>
</g>
<g>
	<path class="st0" d="M356.2,216.5c2,3.3,0.4,7.7-2,10.7c-2.4,3-5.7,5.3-7.8,8.5c-4.7,7.2-1.6,18.3,6.2,22c2.1,1,4.5,1.6,6,3.3
		c1.7,2,1.7,5,1.6,7.7c-0.3,5.9-0.5,11.8-0.8,17.7c-0.1,2.8-0.2,5.9,1.3,8.3c1.8,3.1,5.6,4.4,9,5.5c15.6,4.9,34.2,9.3,47-0.9
		c6.4-5.1,10-12.8,15.5-18.8c5.5-6,15.2-9.9,21.7-5c5,3.8,5.7,10.8,7.5,16.8c4.7,15.3,20.2,26.6,36.2,26.4
		c1.8-11.6,8.2-22.5,17.5-29.7c2-1.5,4.5-2.9,6.8-2c2.5,1,3.2,4.4,2.4,7c-0.7,2.6-2.5,4.8-3.5,7.4c-3.8,9.4,3,20.2,0.9,30.1
		c-1.9,8.5-10.4,14.4-19,15.1s-17.2-2.9-24.1-8.2c-2.9-2.2-5.6-4.7-8.9-6.3c-3.8-1.9-8.2-2.5-12.4-3c-10.3-1.3-21.2-2.5-30.9,1.5
		c-8.7,3.7-15.4,11.3-24,15.1c-9.1,4.1-20.1,3.5-28.7-1.5c-13.4-7.7-20.8-24.8-35.7-28.6c-10.8-2.7-22.8,2.5-32.9-2.1
		c-8.7-4-13.1-14.5-12.2-24.1c0.8-9.6,5.8-18.3,11.5-26c-11.2-6.2-23.7-14.6-24.4-27.3c-0.2-4,0.8-7.9,1.9-11.7
		c2.7-9.6,5.7-19.1,9-28.5c1.9-5.5,4.5-11.6,9.9-13.7c2.7-1.1,5.7-1,8.5-0.9c8.5,0.3,17,0.7,25.5,1c2,0.1,4,0.2,5.7,1.2
		c3,1.9,3.6,5.9,4.7,9.2c1.2,3.3,4.6,6.8,7.8,5.2"/>
	<g>
		<path d="M354,217.8c2.7,6.1-5.3,10.9-8.4,14.8c-2.2,2.7-3.6,5.9-3.8,9.4c-0.5,6.5,2.4,13.4,8,17c1.7,1.1,3.8,1.5,5.4,2.6
			c2.8,1.8,2.6,4.3,2.5,7.2c-0.1,6.4-0.8,12.8-0.8,19.2c0,8.5,4.4,12.3,12.1,14.8c15.8,5.1,36,9.8,50-2c7-6,10.4-15.3,17.8-20.9
			c3.5-2.6,8.5-5,12.9-3.6c5.9,1.8,7.1,8.8,8.4,13.9c4.8,17.9,20.6,30.9,39.4,31c1,0,2.2-0.8,2.4-1.8c1-5.9,3-11.5,6.1-16.6
			c1.8-2.9,3.8-5.5,6.2-7.9c0.7-0.7,1.5-1.4,2.2-2.1c1-0.9,2-1.7,3.1-2.4c3.7-0.4,5.2,0.6,4.3,3.1c-0.4,2.8-2.8,5.4-3.7,8.1
			c-0.8,2.3-1,4.8-1,7.2c0.1,6.2,2.5,12.1,2.4,18.3c-0.1,14.3-15.6,19.6-27.5,15.9c-6.1-1.9-11-5.6-16-9.5
			c-5.1-3.9-10.3-5.6-16.6-6.4c-11.9-1.6-24.6-3.2-35.8,2.2c-11.1,5.3-18.9,15.8-31.9,16.8c-25.2,1.8-31.5-27.2-53.2-32.6
			c-12.9-3.2-30.5,5.2-39.5-8c-9.1-13.3-0.9-29.2,7.3-40.6c0.8-1.1,0.2-2.8-0.9-3.4c-9.5-5.4-22.5-12.9-23.2-25.2
			c-0.4-7,2.7-14.4,4.7-20.9c2-6.7,4.1-13.4,6.6-20c2.6-7,5.9-11.5,13.9-11.5c7.7-0.1,15.5,0.6,23.3,0.9c4,0.2,8.4-0.4,10.3,3.9
			c1,2.2,1.3,4.6,2.4,6.7c2,3.8,5.7,6.5,10,5.1c3-1,1.7-5.8-1.3-4.8c-4.5,1.5-5.5-6.6-6.6-9.2c-1.1-2.5-2.7-4.5-5.3-5.6
			c-2.9-1.2-6.4-1-9.5-1.1c-4.6-0.2-9.1-0.4-13.7-0.5c-6.5-0.3-14.2-1.7-20,2.1c-4.7,3.2-6.9,8.8-8.8,14c-2.8,7.9-5.3,16-7.7,24
			c-1.9,6.6-4.2,13.4-2.9,20.3c2.5,12.6,14.9,20.3,25.2,26.1c-0.3-1.1-0.6-2.3-0.9-3.4c-7.9,11-14.8,24.5-10.7,38.2
			c3.9,13.2,15.1,18.2,28.1,17.5c7.9-0.4,15.8-1.6,23.1,2.3c5.6,3,10,7.9,14.3,12.5c8.6,9.3,17.6,17.5,30.9,18.2
			c6.5,0.3,12.9-1.3,18.6-4.4c6.5-3.6,11.8-8.9,18.3-12.4c7.9-4.1,16.8-4.1,25.5-3.3c8.3,0.8,16.2,1.5,23,6.7
			c10.5,8,23.2,15.1,36.6,9.9c12.2-4.8,15.9-15.8,13.8-28c-0.8-4.4-2-8.9-1.5-13.4c0.5-4.2,3.4-7.4,4.4-11.4
			c1.3-4.9-1.3-10.7-7-10.4c-6.2,0.3-12.1,7.6-15.5,12.1c-4.8,6.4-7.8,13.7-9.2,21.6c0.8-0.6,1.6-1.2,2.4-1.8
			c-9.1-0.1-17.7-3.6-24.3-9.8c-7.1-6.7-8.8-14.4-11.7-23.3c-2.2-6.6-6.7-12.2-14.2-12.3c-7.6-0.1-14.2,4.7-18.8,10.3
			c-5.6,6.9-9.6,15.3-18,19.2c-9.1,4.3-20,2.7-29.4,0.5c-4-1-8-2-11.9-3.4c-2.2-0.8-4.9-1.8-6.2-3.9c-1.6-2.6-0.9-6.2-0.8-9
			c0.2-5.5,0.6-11,0.7-16.4c0.1-3.3-0.3-6.8-2.9-9.2c-3.2-3-7.8-3.3-10.6-7.1c-2.8-3.8-3.6-9.5-1.4-13.7c2.4-4.7,7.5-7.3,10-12
			c1.9-3.5,2-7.1,0.4-10.7C357,212.3,352.7,214.9,354,217.8L354,217.8z"/>
	</g>
</g>
<g>
	<path class="st1" d="M306.2,209.2c-4.7-0.3-8.6,4.5-8.3,9.2c0.2,4.7,3.7,8.7,7.8,10.8c1.3,0.7,2.7,1.2,4.2,1
		c2.5-0.4,4.1-2.8,5.1-5.1c1.4-3.2,2.1-6.8,1-10c-1.1-3.2-4.6-5.8-7.9-5"/>
	<g>
		<path d="M306.2,206.7c-6.4,0.2-11.3,5.9-10.8,12.3c0.5,6.3,6.3,12.8,12.7,13.7c13.4,1.8,15.6-27.3-0.7-24.9
			c-3.2,0.5-1.8,5.3,1.3,4.8c8.5-1.2,6.1,20-3.3,13.6c-2.4-1.6-4.5-4-4.9-7c-0.6-3.6,1.8-7.4,5.7-7.5
			C309.4,211.6,309.4,206.6,306.2,206.7L306.2,206.7z"/>
	</g>
</g>
<g>
	<path class="st1" d="M330.9,213.9c-5.9-2.2-12.8,3.7-12.4,10s6.8,11.2,13.2,10.9c1.7-0.1,3.5-0.5,4.9-1.4c2.8-1.9,3.6-5.7,3.4-9.1
		c-0.2-3.3-1.3-6.6-3.5-9c-2.2-2.4-5.7-3.9-8.9-3.1"/>
	<g>
		<path d="M331.5,211.5c-6.9-2-14.2,2.9-15.4,10c-1.3,7.6,5.2,14.2,12.3,15.6c19.7,3.7,17.2-29.8-0.9-27.4c-3.1,0.4-3.2,5.4,0,5
			c12-1.6,13.7,20.7,1,17.3c-4.1-1.1-8.3-5.1-7.5-9.8c0.7-4.2,5.1-7.1,9.2-5.9C333.3,217.2,334.6,212.4,331.5,211.5L331.5,211.5z"/>
	</g>
</g>
<g>
	<g>
		<path d="M305.3,222.3c3.2,0,3.2-5,0-5C302.1,217.3,302.1,222.3,305.3,222.3L305.3,222.3z"/>
	</g>
</g>
<g>
	<g>
		<path d="M325.8,227.4c3.2,0,3.2-5,0-5C322.6,222.4,322.6,227.4,325.8,227.4L325.8,227.4z"/>
	</g>
</g>
<g>
	<g>
		<path d="M305.4,246.8c6.4-0.5,12,0.7,18.3,1.7c3.4,0.5,6.4-0.7,7.1-4.2c0.7-3.1-4.1-4.5-4.8-1.3c-0.3,1.3-9.1-1-9.9-1.1
			c-3.6-0.4-7.1-0.4-10.7-0.1C302.2,242,302.2,247,305.4,246.8L305.4,246.8z"/>
	</g>
</g>
<g>
	<g>
		<path d="M296.7,266.7c-3,0-4.3-4.4-7.9-4c-0.1,0-3.5,1.8-3.1,1.9c-0.1,0-1.4-4.6-1.9-5.2c-1.5-1.9-4-2.5-6.2-1.6
			c-1.3,0.6-2.3,1.6-3.4,2.5c-3.1,2.4-5.4,2.6-9.2,2c-3.1-0.5-4.5,4.4-1.3,4.8c3.4,0.5,7.2,1,10.4-0.6c1-0.5,4.4-4,5-4
			c1.2,0.1,1.9,3.9,2.6,4.7c1.8,2.6,4,2.7,6.6,1.6c1.1-0.4,0.2-0.9,1.7-0.7c1.2,0.2,1.8,1.4,2.7,2c1.3,0.9,2.4,1.3,4.1,1.3
			C299.9,271.7,299.9,266.7,296.7,266.7L296.7,266.7z"/>
	</g>
</g>
<g>
	<g>
		<path d="M263.3,255.5c-1.4,2.7-1.1,5.5,0.9,7.9c1,1.1,2.2,1.9,3.6,2.5c0.8,0.3,1.6,0.6,2.4,0.8c0.4,0.1,4.6,1.2,1-0.7
			c-2.2-1.1-5.3,0.4-6.6,2.2c-1.6,2.1-1.7,5-0.3,7.2c1.8,2.7,6.1,0.2,4.3-2.5c-1.8-2.8,3.9-1.6,5.3-2c1.6-0.5,3.1-1.9,3.4-3.7
			c0.3-1.8-0.8-3.3-2.3-4.2c-1.6-0.9-9-1.8-7.3-5C269.1,255.2,264.8,252.6,263.3,255.5L263.3,255.5z"/>
	</g>
</g>
<g>
	<g>
		<path d="M361.3,265.5c2.7-1.8,6.1,0,9-0.9c2.4-0.7,3-2.1,3.9-4.2c0.8-1.9,1.2-3.1,3.2-4.2c1.4-0.8,2.8-1.4,4.1-2.4
			c2.5-2,4.4-4.5,5.6-7.4c1.3-2.9-3-5.5-4.3-2.5c-1.7,3.8-4.2,6.4-8,8c-1.9,0.8-3.7,1.3-4.8,3.3c-0.4,0.8-0.6,4.2-1.2,4.6
			c-0.6,0.5-3,0-3.7,0c-2.4-0.1-4.5,0.1-6.5,1.4C356.1,263,358.6,267.3,361.3,265.5L361.3,265.5z"/>
	</g>
</g>
<g>
	<g>
		<path d="M374.7,244.5c-0.3,4.5-0.2,9,0.4,13.4c0.2,1.7,2,3.3,3.8,2.2c2.6-1.7,5.4-2.8,8.5-3c3.2-0.2,3.2-5.2,0-5
			c-4,0.3-7.7,1.5-11,3.7c1.3,0.7,2.5,1.4,3.8,2.2c-0.6-4.5-0.7-8.9-0.4-13.4C379.9,241.3,374.9,241.3,374.7,244.5L374.7,244.5z"/>
	</g>
</g>
<g>
	<path class="st2" d="M259.2,189.6c40.2,1.4,80.3,2.7,120.5,4.1"/>
	<g>
		<path d="M259.2,192.1c40.2,1.4,80.3,2.7,120.5,4.1c3.2,0.1,3.2-4.9,0-5c-40.2-1.4-80.3-2.7-120.5-4.1
			C255.9,187,255.9,192,259.2,192.1L259.2,192.1z"/>
	</g>
</g>
<g>
	<path class="st2" d="M281,187c4.6-8.3,9.2-16.5,13.8-24.8c0.9-1.6,1.8-3.3,3.1-4.7c3.2-3.4,8.2-4.5,12.8-4.1
		c4.6,0.4,8.9,2.3,13.2,4c7.7,3.3,15.6,6.6,22,12.1c6.4,5.5,11.1,13.6,10.4,21.9"/>
	<g>
		<path d="M283.2,188.3c4.6-8.3,9.1-16.6,13.8-24.8c4.9-8.6,12.9-8.7,21.4-5.5c14.9,5.4,36.2,14.6,35.4,33.6c-0.1,3.2,4.9,3.2,5,0
			c0.9-21.6-22-32.1-39.1-38.4c-7.7-2.8-17.3-3.8-23.6,2.6c-3.5,3.7-5.7,9-8.1,13.5c-3.1,5.5-6.1,11-9.2,16.5
			C277.3,188.6,281.6,191.1,283.2,188.3L283.2,188.3z"/>
	</g>
</g>
<g>
	<g>
		<path d="M259.2,247.1c0.2,3.9-0.5,7.9,0.2,11.8c0.5,2.9,1.9,5.3,3,8c3.2,7.5,2.4,15.8,1.6,23.7c-0.3,3.2,4.7,3.2,5,0
			c0.7-7.1,1.4-14.5-0.5-21.5c-0.9-3.3-2.8-6-3.8-9.2c-1.3-4.1-0.3-8.6-0.5-12.8C264.1,243.9,259.1,243.9,259.2,247.1L259.2,247.1z"
			/>
	</g>
</g>
<g>
	<g>
		<path d="M260,243c-2.2-0.2-3.8,0-5.8,0.6c-1.4,0.4-2,1.7-1.7,3.1c2.1,11.5,8.5,22.5,7.9,34.4c-0.2,3-1.3,5.4-1.9,8.3
			c-0.3,1.3-0.5,2.8,0.4,3.9c2.1,2.9,7.4,1.8,10.3,0.9c1.9-0.6,2.3-2.8,1.1-4.2c-0.8-0.9-1.6-1.9-2.4-2.8c-2.1-2.5-5.6,1.1-3.5,3.5
			c0.8,0.9,1.6,1.9,2.4,2.8c0.4-1.4,0.7-2.8,1.1-4.2c-2.1,0.6-4,1-6.1,0.2c0.6,0.6,1.2,1.2,1.7,1.7c-0.5-1.7,1.2-4.5,1.5-6.3
			c0.2-1.3,0.4-2.7,0.5-4c0.2-3.6-0.3-7.4-1.1-10.9c-1.8-8.4-5.5-16.3-7-24.7c-0.6,1-1.2,2.1-1.7,3.1c1.5-0.7,2.9-0.8,4.5-0.4
			C263.2,248.3,263.2,243.3,260,243L260,243z"/>
	</g>
</g>
<g>
	<g>
		<path d="M258.1,242.4c-7-1.1-13.5-0.2-19.9,2.9c1.3,0.7,2.5,1.4,3.8,2.2c0.1-3.4,0.1-6.8,0.2-10.2c-0.8,0.8-1.7,1.7-2.5,2.5
			c7.5,0.2,15,0.3,22.5,0.5c1.3,0,4.7-0.5,5.6,0.1c1.2,0.8,1.4,2.3,1.8,3.7c1.1,3.5,2,7,2.7,10.6c0.6-1,1.2-2.1,1.7-3.1
			c-1.1,0.4-2.1-5.5-2.4-6.4c-0.5-1.5-1.3-2.7-2.7-3.5c-3.7-2.2-6.2,1.2-9.8,1.3c-3.2,0.1-3.2,5.1,0,5c1.8,0,3.1-1,4.8-1.2
			c1.1-1.2,2-1.1,2.5,0.3c0.9,0.7,1.3,1.7,1.1,2.9c0.2,0.7,0.3,1.5,0.5,2.2c1.2,3.1,4,5.3,7.3,4.2c1.3-0.4,2-1.7,1.7-3.1
			c-1-4.7-1.9-9.7-3.9-14.1c-1-2.2-1.9-3.3-4.3-3.8c-4.4-0.9-9.7-0.3-14.3-0.4c-5-0.1-10-0.2-15-0.3c-1.4,0-2.5,1.2-2.5,2.5
			c-0.1,3.4-0.1,6.8-0.2,10.2c0,2,2.1,2.9,3.8,2.2c5.1-2.4,10.5-3.3,16.1-2.4C259.9,247.7,261.2,242.9,258.1,242.4L258.1,242.4z"/>
	</g>
</g>
</svg>
